PathFileType	4	(X/Y/Z)	RBDS022static.trc
DataRate	CameraRate	NumFrames	NumMarkers	Units	OrigDataRate	OrigDataStartFrame	OrigNumFrames
150.000000	150.000000	4	48	mm	150.000000	56	150
Frame#	Time	L.Ankle			L.Ankle.Medial			L.ASIS			L.GTR			L.Heel.Bottom			L.Heel.Lateral			L.Heel.Top			L.HF			L.Iliac.Crest			L.Knee			L.Knee.Medial			L.MT1			L.MT2			L.MT5			L.PSIS			L.Shank.Bottom.Lateral			L.Shank.Bottom.Medial			L.Shank.Top.Lateral			L.Shank.Top.Medial			L.Thigh.Bottom.Lateral			L.Thigh.Bottom.Medial			L.Thigh.Top.Lateral			L.Thigh.Top.Medial			L.TT			R.Ankle			R.Ankle.Medial			R.ASIS			R.GTR			R.Heel.Bottom			R.Heel.Lateral			R.Heel.Top			R.HF			R.Iliac.Crest			R.Knee			R.Knee.Medial			R.MT1			R.MT2			R.MT5			R.PSIS			R.Shank.Bottom.Lateral			R.Shank.Bottom.Medial			R.Shank.Top.Lateral			R.Shank.Top.Medial			R.Thigh.Bottom.Lateral			R.Thigh.Bottom.Medial			R.Thigh.Top.Lateral			R.Thigh.Top.Medial			R.TT			
		X1	Y1	Z1	X2	Y2	Z2	X3	Y3	Z3	X4	Y4	Z4	X5	Y5	Z5	X6	Y6	Z6	X7	Y7	Z7	X8	Y8	Z8	X9	Y9	Z9	X10	Y10	Z10	X11	Y11	Z11	X12	Y12	Z12	X13	Y13	Z13	X14	Y14	Z14	X15	Y15	Z15	X16	Y16	Z16	X17	Y17	Z17	X18	Y18	Z18	X19	Y19	Z19	X20	Y20	Z20	X21	Y21	Z21	X22	Y22	Z22	X23	Y23	Z23	X24	Y24	Z24	X25	Y25	Z25	X26	Y26	Z26	X27	Y27	Z27	X28	Y28	Z28	X29	Y29	Z29	X30	Y30	Z30	X31	Y31	Z31	X32	Y32	Z32	X33	Y33	Z33	X34	Y34	Z34	X35	Y35	Z35	X36	Y36	Z36	X37	Y37	Z37	X38	Y38	Z38	X39	Y39	Z39	X40	Y40	Z40	X41	Y41	Z41	X42	Y42	Z42	X43	Y43	Z43	X44	Y44	Z44	X45	Y45	Z45	X46	Y46	Z46	X47	Y47	Z47	X48	Y48	Z48	

57	0.3733333333333334	707.4423828125	106.5552062988281	1036.203979492188	725.9596557617188	126.5578384399414	1120.88818359375	844.4228515625	1006.086547851563	1098.423706054688	764.6681518554688	903.2882080078125	1034.592529296875	636.0306396484375	38.48969650268555	1086.995239257813	666.417724609375	60.88857650756836	1041.639892578125	643.775634765625	84.06639862060547	1088.240966796875	740.2517700195313	471.6952514648438	1039.631469726563	758.3267822265625	1076.896118164063	1049.362548828125	746.51904296875	540.490966796875	1043.60546875	743.9823608398438	519.7980346679688	1168.3759765625	854.3726196289063	57.87852096557617	1123.196044921875	861.6476440429688	68.01939392089844	1076.43017578125	821.2880249023438	47.05188369750977	1010.198547363281	670.7534790039063	1030.212158203125	1171.89892578125	696.1349487304688	190.7488403320313	1030.038452148438	658.2090454101563	192.3358001708984	1070.223266601563	689.4852905273438	270.4588012695313	1020.966125488281	652.577392578125	272.978759765625	1060.116821289063	744.7328491210938	646.1287231445313	1030.997192382813	686.1585083007813	654.5309448242188	1074.22314453125	749.0225830078125	755.1016235351563	1018.350891113281	695.2777709960938	762.6072387695313	1062.213256835938	790.7393188476563	446.9229736328125	1091.252319335938	701.005126953125	108.4579086303711	1415.19140625	725.0601806640625	128.7602233886719	1330.727905273438	836.2056274414063	1006.640991210938	1336.771362304688	765.5652465820313	908.5682373046875	1393.386840820313	631.3318481445313	40.04511260986328	1367.382690429688	663.13232421875	60.56926345825195	1411.368286132813	638.9526977539063	83.50875854492188	1366.949951171875	750.3605346679688	473.8439331054688	1400.35693359375	767.4635620117188	1074.373657226563	1376.86962890625	757.3469848632813	535.9324340820313	1395.668090820313	755.7500610351563	519.9876708984375	1271.601806640625	840.6980590820313	56.19931793212891	1320.016479492188	857.8705444335938	71.12916564941406	1373.981079101563	823.5813598632813	49.16953659057617	1435.571044921875	672.4830322265625	1030.7958984375	1257.118286132813	687.0772094726563	187.9483337402344	1416.533447265625	655.6959838867188	195.1701354980469	1376.741821289063	693.7098388671875	272.259033203125	1425.919677734375	657.80859375	275.6436462402344	1386.079711914063	757.0233764648438	636.4185180664063	1406.392333984375	697.1961669921875	641.0987548828125	1366.903686523438	759.9882202148438	746.8218383789063	1413.5166015625	701.4759521484375	750.5368041992188	1377.974365234375	799.2828369140625	449.2830200195313	1357.926391601563	
58	0.38	707.4390869140625	106.5475311279297	1036.19775390625	725.937744140625	126.5697860717773	1120.876098632813	844.43359375	1006.08740234375	1098.423706054688	764.664794921875	903.2865600585938	1034.59375	636.0322265625	38.49529647827148	1086.991821289063	666.4124145507813	60.87479400634766	1041.646118164063	643.771728515625	84.06601715087891	1088.239013671875	740.2449951171875	471.7066650390625	1039.625	758.3305053710938	1076.895263671875	1049.3720703125	746.5126342773438	540.4959716796875	1043.606567382813	743.9793090820313	519.7902221679688	1168.38232421875	854.357421875	57.8761100769043	1123.192749023438	861.6459350585938	67.99468994140625	1076.393920898438	821.2885131835938	47.04730224609375	1010.19140625	670.7708740234375	1030.213256835938	1171.918823242188	696.137451171875	190.7502136230469	1030.037841796875	658.201416015625	192.3307952880859	1070.221069335938	689.484375	270.4542541503906	1020.954223632813	652.5730590820313	272.9809265136719	1060.10693359375	744.7258911132813	646.1307373046875	1031.010009765625	686.1570434570313	654.5365600585938	1074.236694335938	749.0360107421875	755.0968627929688	1018.364135742188	695.2785034179688	762.6121826171875	1062.22265625	790.7290649414063	446.9215393066406	1091.267700195313	701.0021362304688	108.4507141113281	1415.194702148438	725.0592651367188	128.7668762207031	1330.721923828125	836.2183837890625	1006.6455078125	1336.77294921875	765.5751342773438	908.5625	1393.40283203125	631.3265991210938	40.04441070556641	1367.379028320313	663.1375122070313	60.56930923461914	1411.368408203125	638.9445190429688	83.50569152832031	1366.943603515625	750.337890625	473.8415832519531	1400.367797851563	767.4777221679688	1074.375854492188	1376.862670898438	757.333251953125	535.9286499023438	1395.684448242188	755.7144165039063	519.9902954101563	1271.607666015625	840.6934814453125	56.19831466674805	1320.011108398438	857.8668823242188	71.15473937988281	1374.009765625	823.5836181640625	49.17202758789063	1435.570190429688	672.5032348632813	1030.792724609375	1257.125854492188	687.0621948242188	187.9413909912109	1416.524780273438	655.6814575195313	195.1675109863281	1376.751342773438	693.6931762695313	272.2515258789063	1425.920166015625	657.80078125	275.6355285644531	1386.071533203125	757.0100708007813	636.4260864257813	1406.380615234375	697.166259765625	641.1134643554688	1366.905639648438	759.9913940429688	746.8260498046875	1413.507202148438	701.4613647460938	750.5582275390625	1377.970336914063	799.2697143554688	449.2840881347656	1357.9453125	
59	0.3866666666666667	707.4446411132813	106.5493774414063	1036.210205078125	725.9735107421875	126.5476150512695	1120.893188476563	844.4461059570313	1006.082153320313	1098.435180664063	764.6757202148438	903.2872314453125	1034.6044921875	636.0322875976563	38.48567581176758	1086.99853515625	666.4205932617188	60.87544250488281	1041.648681640625	643.7756958007813	84.06846618652344	1088.241333007813	740.2257690429688	471.7095336914063	1039.627319335938	758.34619140625	1076.887939453125	1049.378295898438	746.4939575195313	540.4948120117188	1043.614013671875	743.9948120117188	519.7858276367188	1168.394409179688	854.3653564453125	57.88299942016602	1123.19921875	861.6422119140625	68.02432250976563	1076.428955078125	821.2882080078125	47.04787445068359	1010.193298339844	670.7830810546875	1030.224853515625	1171.922973632813	696.1346435546875	190.7574462890625	1030.028564453125	658.2012939453125	192.3302154541016	1070.215087890625	689.4879150390625	270.4588928222656	1020.957763671875	652.5743408203125	272.9874572753906	1060.11376953125	744.724609375	646.1314086914063	1031.00830078125	686.1489868164063	654.546630859375	1074.239135742188	749.03564453125	755.1113891601563	1018.371887207031	695.3004150390625	762.6202392578125	1062.237548828125	790.725830078125	446.92626953125	1091.280883789063	701.0009155273438	108.4604339599609	1415.199340820313	725.055908203125	128.7559661865234	1330.734497070313	836.222412109375	1006.642272949219	1336.793090820313	765.5771484375	908.5592651367188	1393.405029296875	631.3263549804688	40.03606414794922	1367.375	663.1346435546875	60.56599426269531	1411.36865234375	638.9464721679688	83.50375366210938	1366.955200195313	750.3280639648438	473.8467102050781	1400.375	767.4865112304688	1074.3828125	1376.878784179688	757.3140869140625	535.9327392578125	1395.693603515625	755.6823120117188	519.9974975585938	1271.626831054688	840.6980590820313	56.19588851928711	1320.01025390625	857.8695068359375	71.15332794189453	1374.003784179688	823.5765380859375	49.17525863647461	1435.5732421875	672.5195922851563	1030.805053710938	1257.131469726563	687.05615234375	187.9427032470703	1416.525390625	655.6672973632813	195.1652984619141	1376.744995117188	693.678955078125	272.2729797363281	1425.928955078125	657.7824096679688	275.6309204101563	1386.076416015625	756.99609375	636.4329223632813	1406.390502929688	697.1428833007813	641.1204833984375	1366.911987304688	759.98095703125	746.8302001953125	1413.507202148438	701.4542846679688	750.5390014648438	1377.97021484375	799.2578125	449.2752685546875	1357.965454101563	
60	0.3933333333333334	707.4530639648438	106.5496292114258	1036.204345703125	725.9330444335938	126.5717544555664	1120.889038085938	844.462646484375	1006.062316894531	1098.449462890625	764.6846313476563	903.2882080078125	1034.609497070313	636.0278930664063	38.48972702026367	1086.99609375	666.42431640625	60.8788948059082	1041.645263671875	643.7756958007813	84.06932830810547	1088.232788085938	740.2310791015625	471.6990356445313	1039.643188476563	758.3753662109375	1076.884033203125	1049.38037109375	746.4940795898438	540.4884643554688	1043.62353515625	743.9744262695313	519.7888793945313	1168.41357421875	854.356689453125	57.87883377075195	1123.200073242188	861.6419067382813	67.99620056152344	1076.398559570313	821.287353515625	47.09432220458984	1010.202270507813	670.7988891601563	1030.231567382813	1171.931640625	696.1334838867188	190.7532348632813	1030.036254882813	658.1972045898438	192.3307189941406	1070.208862304688	689.4840698242188	270.447509765625	1020.956726074219	652.5709838867188	272.9861145019531	1060.099853515625	744.724609375	646.1640625	1031.030639648438	686.1570434570313	654.55029296875	1074.250122070313	749.0482788085938	755.11328125	1018.387390136719	695.302978515625	762.6257934570313	1062.253295898438	790.7132568359375	446.9248352050781	1091.275756835938	700.9950561523438	108.4510116577148	1415.20263671875	725.0486450195313	128.7444152832031	1330.721923828125	836.23193359375	1006.627014160156	1336.809692382813	765.5855102539063	908.5610961914063	1393.41552734375	631.3260498046875	40.01997756958008	1367.378295898438	663.1263427734375	60.5561408996582	1411.361206054688	638.9407348632813	83.49045562744141	1366.932495117188	750.3091430664063	473.8387756347656	1400.37939453125	767.4973754882813	1074.381469726563	1376.889892578125	757.3004760742188	535.9286499023438	1395.704345703125	755.6917114257813	519.978515625	1271.632202148438	840.6900024414063	56.19541931152344	1320.020751953125	857.8643188476563	71.15559387207031	1374.0048828125	823.5831298828125	49.16962432861328	1435.57373046875	672.53271484375	1030.81689453125	1257.12841796875	687.0536499023438	187.9366455078125	1416.517333984375	655.6533203125	195.1600952148438	1376.73876953125	693.6790771484375	272.272705078125	1425.934814453125	657.7649536132813	275.6317138671875	1386.0703125	756.9721069335938	636.4412841796875	1406.389770507813	697.1240844726563	641.1138916015625	1366.907104492188	759.9851684570313	746.82861328125	1413.49853515625	701.450439453125	750.5595703125	1377.980102539063	799.2363891601563	449.2815551757813	1357.987670898438	
